<?xml version="1.0" standalone="no"?>
<!DOCTYPE svg PUBLIC "-//W3C//DTD SVG 20010904//EN"
 "http://www.w3.org/TR/2001/REC-SVG-20010904/DTD/svg10.dtd">
<svg version="1.0" xmlns="http://www.w3.org/2000/svg"
 width="500.000000pt" height="500.000000pt" viewBox="0 0 500.000000 500.000000"
 preserveAspectRatio="xMidYMid meet">
<metadata>
Created by potrace 1.11, written by Peter Selinger 2001-2013
</metadata>
<g transform="translate(0.000000,500.000000) scale(0.100000,-0.100000)"
fill="#000000" stroke="none">
<path d="M0 2500 l0 -2500 2500 0 2500 0 0 2500 0 2500 -2500 0 -2500 0 0
-2500z m2225 1025 c182 -476 332 -865 336 -865 5 0 546 1381 589 1505 12 33
29 96 39 140 l18 80 371 3 372 2 0 -60 c0 -60 0 -60 -29 -60 -44 0 -169 -28
-209 -47 -23 -11 -41 -30 -53 -57 -18 -39 -19 -86 -19 -929 0 -760 2 -892 15
-916 33 -65 109 -103 235 -117 l60 -7 0 -58 0 -59 -505 0 -505 0 0 59 0 58 88
6 c153 11 231 50 261 130 8 19 11 307 11 893 0 727 -2 864 -14 864 -14 0 -77
-151 -534 -1295 l-268 -670 -38 0 -39 0 -62 165 c-34 91 -202 542 -375 1003
-212 568 -317 837 -327 837 -12 0 -13 -116 -10 -807 3 -730 5 -814 21 -874 37
-142 92 -188 277 -231 l99 -23 0 -57 0 -58 -465 0 -465 0 0 58 0 58 81 12
c207 33 266 93 289 293 7 62 10 340 8 814 l-3 720 -24 52 c-44 98 -146 164
-276 179 l-55 7 0 58 0 59 388 0 388 0 329 -865z m-1490 -1976 c33 -6 77 -20
99 -31 l40 -20 17 21 c22 27 45 27 53 -1 3 -13 6 -78 6 -145 0 -115 -1 -123
-19 -123 -15 0 -24 15 -41 66 -44 130 -121 194 -235 194 -36 0 -76 -8 -100
-19 -122 -55 -193 -247 -166 -447 20 -143 101 -263 199 -292 65 -20 152 -15
202 11 l45 22 3 90 c2 50 0 100 -3 113 -7 27 -58 52 -105 52 -23 0 -30 4 -30
20 0 19 7 20 180 20 169 0 180 -1 180 -19 0 -13 -10 -20 -36 -24 -67 -11 -74
-25 -74 -157 l0 -118 -39 -15 c-135 -55 -303 -66 -401 -28 -152 59 -244 188
-257 358 -20 264 150 467 403 482 11 0 47 -4 79 -10z m1025 -109 c0 -89 -2
-100 -18 -100 -10 0 -27 18 -41 45 -13 25 -39 59 -58 75 -33 30 -34 30 -158
30 l-125 0 0 -165 0 -165 79 0 c95 0 124 17 144 88 9 28 21 48 31 50 14 3 16
-14 16 -163 0 -149 -2 -166 -16 -163 -10 2 -22 22 -31 50 -20 71 -49 88 -144
88 l-79 0 0 -152 c1 -204 -9 -193 172 -193 l140 0 28 33 c15 19 41 63 57 98
19 42 34 64 45 64 16 0 17 -9 12 -92 -3 -51 -7 -108 -10 -125 l-5 -33 -339 0
c-325 0 -340 1 -340 19 0 15 10 19 47 24 29 3 52 12 60 23 10 14 13 92 13 350
l0 333 -22 16 c-13 8 -40 18 -60 22 -28 4 -38 10 -38 24 0 18 14 19 320 19
l320 0 0 -100z m820 -15 c0 -103 -2 -115 -17 -115 -12 0 -25 16 -37 47 -11 26
-38 67 -59 90 l-40 43 -73 0 -74 0 0 -345 c0 -392 -3 -377 84 -390 36 -6 46
-11 46 -26 0 -18 -10 -19 -190 -19 -179 0 -190 1 -190 19 0 14 10 19 45 24 89
9 85 -8 85 389 l0 348 -74 0 -74 0 -40 -46 c-22 -25 -49 -65 -59 -89 -12 -29
-24 -45 -35 -45 -16 0 -18 12 -18 115 l0 115 360 0 360 0 0 -115z m410 96 c0
-14 -10 -20 -39 -25 -68 -11 -71 -19 -71 -182 l0 -144 200 0 200 0 0 140 c0
158 -6 173 -74 186 -26 4 -36 11 -36 25 0 18 10 19 170 19 159 0 170 -1 170
-19 0 -14 -10 -20 -40 -24 -73 -10 -70 8 -70 -367 0 -378 -3 -364 74 -377 26
-4 36 -11 36 -24 0 -18 -11 -19 -170 -19 -163 0 -170 1 -170 20 0 16 7 20 35
20 22 0 43 8 55 20 18 18 20 33 20 185 l0 165 -200 0 -200 0 0 -158 c0 -181 6
-198 71 -208 29 -5 39 -11 39 -25 0 -18 -11 -19 -170 -19 -163 0 -170 1 -170
20 0 16 7 20 33 20 18 0 43 7 55 16 22 15 22 15 22 354 l0 340 -23 15 c-13 8
-37 18 -55 21 -22 5 -32 12 -32 25 0 18 10 19 170 19 159 0 170 -1 170 -19z
m1000 0 c0 -15 -10 -20 -50 -25 -82 -11 -80 -3 -80 -363 0 -171 4 -323 9 -336
10 -25 55 -47 97 -47 17 0 24 -6 24 -20 0 -19 -7 -20 -185 -20 -178 0 -185 1
-185 20 0 17 7 20 40 20 30 0 47 7 65 25 l25 24 0 321 0 321 -24 24 c-14 14
-42 27 -65 31 -31 5 -41 11 -41 25 0 18 11 19 185 19 174 0 185 -1 185 -19z
m610 -7 c25 -12 60 -35 77 -53 85 -85 60 -252 -50 -327 -61 -42 -100 -53 -209
-61 l-88 -6 0 -137 c0 -159 4 -170 73 -177 37 -5 47 -9 47 -24 0 -18 -11 -19
-175 -19 -164 0 -175 1 -175 19 0 14 10 20 42 24 23 3 48 14 55 23 10 14 13
95 13 350 0 372 2 359 -71 370 -30 5 -39 11 -39 26 0 20 6 20 228 16 202 -3
232 -6 272 -24z"/>
<path d="M4330 1306 l0 -186 63 0 c87 0 144 29 175 90 40 80 26 183 -33 240
-35 33 -40 35 -121 39 l-84 3 0 -186z"/>
</g>
</svg>
